<?xml version="1.0" encoding="UTF-8" standalone="no"?>
<svg
   version="1.1"
   id="Layer_1"
   x="0px"
   y="0px"
   width="100%"
   viewBox="0 0 393 393"
   enable-background="new 0 0 393 393"
   xml:space="preserve"
   sodipodi:docname="xfilter.svg"
   inkscape:version="1.4 (86a8ad7, 2024-10-11)"
   inkscape:export-filename="logo16.png"
   inkscape:export-xdpi="3.908397"
   inkscape:export-ydpi="3.908397"
   xmlns:inkscape="http://www.inkscape.org/namespaces/inkscape"
   xmlns:sodipodi="http://sodipodi.sourceforge.net/DTD/sodipodi-0.dtd"
   xmlns="http://www.w3.org/2000/svg"
   xmlns:svg="http://www.w3.org/2000/svg"><defs
   id="defs8" /><sodipodi:namedview
   id="namedview8"
   pagecolor="#ffffff"
   bordercolor="#000000"
   borderopacity="0.25"
   inkscape:showpageshadow="2"
   inkscape:pageopacity="0.0"
   inkscape:pagecheckerboard="0"
   inkscape:deskcolor="#d1d1d1"
   inkscape:zoom="0.5"
   inkscape:cx="-304"
   inkscape:cy="199"
   inkscape:window-width="1920"
   inkscape:window-height="1001"
   inkscape:window-x="-9"
   inkscape:window-y="-9"
   inkscape:window-maximized="1"
   inkscape:current-layer="Layer_1" />



<rect
   style="fill:#071e33;fill-opacity:1;stroke-width:0.973441"
   id="rect9"
   width="383.30762"
   height="381.33273"
   x="4.7426405"
   y="5.8033009"
   rx="80" /><ellipse
   style="fill:#143453;fill-opacity:1;stroke-width:1.25756"
   id="path8"
   cx="195.87868"
   cy="195.75"
   rx="153.5"
   ry="149.25" /><path
   fill="#fdfdfd"
   opacity="1"
   stroke="none"
   d="m 118.8825,63.967339 c 30.11955,34.735328 59.87513,69.287361 89.64813,103.824381 35.1045,40.72162 70.22407,81.43025 105.64152,122.30008 8.89783,10.39755 17.49121,20.63958 26.68674,31.5993 -19.6359,0 -38.36081,0.10437 -57.08032,-0.16659 -1.80695,-0.0262 -3.58017,-2.38044 -5.67548,-3.85227 C 262.01611,299.01248 246.27837,280.51431 230.44705,262.09656 182.05402,205.79724 133.62497,149.52887 84.907548,93.100769 76.479066,83.314262 68.352983,73.675438 59.846963,63.585953 c 1.427776,-0.167256 2.451557,-0.389401 3.475891,-0.391941 16.965614,-0.04213 33.93132,-0.0727 50.896926,-0.04852 1.43578,0.002 2.871,0.411632 4.66272,0.82185 z"
   id="path4" />
<path
   fill="#cd0101"
   opacity="1"
   stroke="none"
   d="m 79.653753,290.5047 c 16.69385,-19.81949 33.274837,-39.32702 49.865517,-58.82628 1.9253,-2.26285 3.90422,-4.48006 6.43253,-7.37623 10.10304,11.48967 19.90271,22.63433 30.02829,34.14962 -16.88568,20.10287 -33.54654,39.93811 -50.33334,60.08175 -1.8167,1.4004 -3.50744,2.49234 -5.88912,3.27124 -16.870776,-0.40368 -33.050593,-0.50253 -49.230555,-0.55252 -0.59639,-0.002 -7.430224,-0.0417 -7.593798,-0.0685 l 0.06147,-0.0906 C 62.135116,310.20742 71.032011,300.9562 79.653753,290.5047 Z"
   id="path5"
   sodipodi:nodetypes="csccccsccc"
   style="fill:#980101;fill-opacity:1" />
<path
   fill="#CD0101"
   opacity="1"
   stroke="none"
   d="m 308.73368,92.599548 c -16.34696,19.496252 -32.55423,38.687382 -48.76642,57.874342 -1.91571,2.26721 -3.85828,4.51169 -6.20862,7.25769 -2.11726,-2.32303 -4.01054,-4.32698 -5.82287,-6.40164 -7.2273,-8.27339 -14.30318,-16.68413 -21.71288,-24.79011 -2.42055,-2.64801 -1.93044,-4.17228 0.14951,-6.6221 15.50962,-18.26789 30.87669,-36.656782 46.42027,-55.310682 1.32803,-0.78743 2.52228,-1.688183 3.72085,-1.694015 18.3859,-0.0895 36.77234,-0.06235 56.70682,-0.06235 -8.64917,10.458695 -16.49881,19.950585 -24.48666,29.748863 z"
   id="path6"
   style="fill:#980101;fill-opacity:1"
   sodipodi:nodetypes="cscssccscc" />


</svg>
